<?xml version="1.0" encoding="UTF-8" standalone="no"?>
<svg
   width="400"
   height="46"
   viewBox="0 0 400 46"
   version="1.1"
   id="svg47"
   sodipodi:docname="HQLogo.svg"
   inkscape:version="1.3 (0e150ed6c4, 2023-07-21)"
   xmlns:inkscape="http://www.inkscape.org/namespaces/inkscape"
   xmlns:sodipodi="http://sodipodi.sourceforge.net/DTD/sodipodi-0.dtd"
   xmlns="http://www.w3.org/2000/svg"
   xmlns:svg="http://www.w3.org/2000/svg">
  <sodipodi:namedview
     id="namedview47"
     pagecolor="#505050"
     bordercolor="#eeeeee"
     borderopacity="1"
     inkscape:showpageshadow="0"
     inkscape:pageopacity="0"
     inkscape:pagecheckerboard="0"
     inkscape:deskcolor="#d1d1d1"
     inkscape:zoom="2.715"
     inkscape:cx="148.43462"
     inkscape:cy="37.200737"
     inkscape:window-width="1916"
     inkscape:window-height="1030"
     inkscape:window-x="0"
     inkscape:window-y="20"
     inkscape:window-maximized="1"
     inkscape:current-layer="g47" />
  <defs
     id="defs1">
    <style
       id="style1">.a{fill:none;}.b{clip-path:url(#a);}.c,.d{fill-rule:evenodd;}.d,.e{fill:#c00;}.f{fill:#333;}</style>
    <clipPath
       id="a">
      <rect
         class="a"
         width="400"
         height="46"
         id="rect1" />
    </clipPath>
  </defs>
  <g
     class="b"
     clip-path="url(#a)"
     id="g47">
    <path
       d="M160.344,91.011l-.939,3.658c-.1.415-.192.829-.282,1.24s-.149.693-.176.841h-.078c-.027-.16-.086-.45-.176-.872s-.18-.822-.266-1.209l-.939-3.658h-1.917l-.876,3.643c-.09.376-.18.779-.27,1.205s-.149.724-.176.892h-.074c-.031-.168-.1-.513-.207-1.025s-.2-.88-.254-1.088l-.966-3.627H150.9l2.348,7.821h1.874l1-4.077q.1-.4.2-.951c.063-.364.106-.6.125-.712h.074q.029.176.141.728c.074.368.149.685.215.951l.966,4.061h1.874l2.336-7.821Z"
       transform="translate(-91.862 -55.403)"
       id="path1" />
    <path
       d="M193.114,91.011l-.935,3.658c-.1.415-.192.829-.282,1.24s-.149.693-.18.841h-.074c-.027-.16-.09-.45-.176-.872s-.18-.822-.27-1.209l-.935-3.658h-1.917l-.88,3.643c-.086.376-.176.779-.266,1.205s-.149.724-.18.892h-.074c-.027-.168-.1-.513-.207-1.025s-.192-.88-.25-1.088l-.966-3.627h-1.847l2.351,7.821H187.9l.994-4.077c.07-.266.137-.583.2-.951s.106-.6.125-.712h.074q.029.176.141.728c.074.368.145.685.215.951l.966,4.061h1.874l2.332-7.821Z"
       transform="translate(-111.81 -55.403)"
       id="path2" />
    <path
       d="M226.3,91.011l-.939,3.658c-.1.415-.192.829-.282,1.24s-.149.693-.18.841h-.074c-.027-.16-.086-.45-.176-.872s-.18-.822-.27-1.209l-.935-3.658h-1.917l-.876,3.643c-.09.376-.18.779-.27,1.205s-.149.724-.176.892h-.074c-.031-.168-.1-.513-.211-1.025s-.192-.88-.25-1.088l-.966-3.627h-1.843l2.348,7.821h1.874l.994-4.077c.07-.266.137-.583.2-.951s.106-.6.125-.712h.074q.029.176.141.728c.074.368.145.685.215.951l.966,4.061h1.874l2.336-7.821Z"
       transform="translate(-132.015 -55.403)"
       id="path3" />
    <rect
       width="1.858"
       height="1.89"
       transform="translate(97.693 41.54)"
       id="rect3" />
    <path
       d="M268.939,91.2a2.561,2.561,0,0,0-1.858-.649,3.2,3.2,0,0,0-1.452.321,2.98,2.98,0,0,0-1.064.9h-.1l-.149-1.041h-1.471v7.821h1.784V94a1.915,1.915,0,0,1,.5-1.369,1.648,1.648,0,0,1,1.248-.536,1.271,1.271,0,0,1,1.44,1.491v4.965h1.788V93.274a2.78,2.78,0,0,0-.669-2.074"
       transform="translate(-160.005 -55.123)"
       id="path4" />
    <path
       d="M294.112,94.538a4.491,4.491,0,0,0-.853-3.02,3.282,3.282,0,0,0-2.582-.966,3.678,3.678,0,0,0-2.817,1,5.642,5.642,0,0,0-.008,6.186,3.681,3.681,0,0,0,2.825.994,3.934,3.934,0,0,0,2.484-.736,2.584,2.584,0,0,0,.951-2.179H292.36a1.372,1.372,0,0,1-.462,1.123,1.83,1.83,0,0,1-1.205.38,1.784,1.784,0,0,1-1.448-.54,2.8,2.8,0,0,1-.5-1.7h5.368Zm-5.337-.732a2.286,2.286,0,0,1,.556-1.389,1.835,1.835,0,0,1,1.346-.454q1.579,0,1.577,1.843Z"
       transform="translate(-174.67 -55.123)"
       id="path5" />
    <path
       d="M314.73,94.755l2.645-3.744h-2.038l-1.589,2.453h-.09l-1.577-2.453h-2.156l2.617,3.791-2.809,4.03h2.023l1.784-2.739h.086l1.757,2.739h2.14Z"
       transform="translate(-188.549 -55.403)"
       id="path6" />
    <path
       d="M337.326,89.064V87.608h-1.338V85.421H334.56l-.325,2.187h-.982v1.455h.951v4.6a2.176,2.176,0,0,0,.438,1.389,1.718,1.718,0,0,0,1.436.556,3.126,3.126,0,0,0,.653-.074,3.961,3.961,0,0,0,.595-.16V94.15h-.7c-.426,0-.638-.223-.638-.669V89.064Z"
       transform="translate(-202.867 -52)"
       id="path7" />
    <path
       d="M356.608,91.564a2.782,2.782,0,0,0-2.3-1.013,3.055,3.055,0,0,0-1.385.313,2.56,2.56,0,0,0-1.009.908h-.09l-.149-1.041H350.2v10.392h1.784V97.644h.086a2.6,2.6,0,0,0,2.351,1.084,2.644,2.644,0,0,0,2.183-1.025,6.169,6.169,0,0,0,0-6.139m-1.025,3.181a3.277,3.277,0,0,1-.415,1.866,1.594,1.594,0,0,1-1.4.587,1.524,1.524,0,0,1-1.354-.626,3.222,3.222,0,0,1-.43-1.843v-.176a3.245,3.245,0,0,1,.43-1.847,1.53,1.53,0,0,1,1.354-.622,1.594,1.594,0,0,1,1.4.587,3.309,3.309,0,0,1,.415,1.882Z"
       transform="translate(-213.185 -55.123)"
       id="path8" />
    <path
       d="M379.117,96.854a1.476,1.476,0,0,1-1.154.434,1.614,1.614,0,0,1-1.416-.618,3.345,3.345,0,0,1-.442-1.925v-.18a3.466,3.466,0,0,1,.434-1.941,1.519,1.519,0,0,1,1.35-.63,1.482,1.482,0,0,1,1.162.415,1.836,1.836,0,0,1,.372,1.248h1.811a2.98,2.98,0,0,0-.861-2.316,4.215,4.215,0,0,0-5.18.207,5.786,5.786,0,0,0-.008,6.186,3.5,3.5,0,0,0,2.735.994,3.416,3.416,0,0,0,2.445-.818,2.987,2.987,0,0,0,.869-2.289h-1.721a1.76,1.76,0,0,1-.4,1.232"
       transform="translate(-227.85 -55.123)"
       id="path9" />
    <path
       d="M405.212,87.3a2.659,2.659,0,0,0-2.187-1.029,2.594,2.594,0,0,0-2.348,1.088h-.09V83.521H398.8V94.273h1.471l.149-1.041h.09a2.59,2.59,0,0,0,1.009.908,3.064,3.064,0,0,0,1.385.309,2.8,2.8,0,0,0,2.3-1.009,4.876,4.876,0,0,0,.818-3.095,4.813,4.813,0,0,0-.818-3.044m-1.029,3.165a3.277,3.277,0,0,1-.415,1.866,1.594,1.594,0,0,1-1.4.587,1.537,1.537,0,0,1-1.354-.618,3.217,3.217,0,0,1-.43-1.835v-.18q0-2.483,1.784-2.481a1.594,1.594,0,0,1,1.4.587,3.309,3.309,0,0,1,.415,1.882Z"
       transform="translate(-242.77 -50.843)"
       id="path10" />
    <rect
       width="1.858"
       height="1.89"
       transform="translate(166.053 41.54)"
       id="rect10" />
    <path
       d="M441.131,96.854a1.487,1.487,0,0,1-1.154.434,1.626,1.626,0,0,1-1.42-.618,3.348,3.348,0,0,1-.438-1.925v-.18a3.5,3.5,0,0,1,.43-1.941,1.531,1.531,0,0,1,1.354-.63,1.473,1.473,0,0,1,1.158.415,1.816,1.816,0,0,1,.372,1.248h1.815a2.994,2.994,0,0,0-.861-2.316,4.221,4.221,0,0,0-5.184.207,5.786,5.786,0,0,0-.008,6.186,3.5,3.5,0,0,0,2.739.994,3.422,3.422,0,0,0,2.445-.818,2.987,2.987,0,0,0,.869-2.289h-1.725a1.759,1.759,0,0,1-.391,1.232"
       transform="translate(-265.598 -55.123)"
       id="path11" />
    <path
       d="M466.3,91.549a4.688,4.688,0,0,0-5.783,0,5.469,5.469,0,0,0,0,6.186,4.7,4.7,0,0,0,5.783,0,5.469,5.469,0,0,0,0-6.186m-.884,3.2a3.1,3.1,0,0,1-.477,1.909,2.212,2.212,0,0,1-3.067,0,3.153,3.153,0,0,1-.47-1.909v-.207a3.166,3.166,0,0,1,.47-1.913,2.222,2.222,0,0,1,3.067,0,3.109,3.109,0,0,1,.477,1.913Z"
       transform="translate(-279.758 -55.123)"
       id="path12" />
    <path
       d="M496.422,91.177a2.4,2.4,0,0,0-1.753-.626,2.768,2.768,0,0,0-1.354.336,2.9,2.9,0,0,0-1,.884H492.2a2.021,2.021,0,0,0-2.038-1.221,2.582,2.582,0,0,0-1.315.329,2.9,2.9,0,0,0-.959.892h-.106l-.149-1.041h-1.471v7.821h1.784V94a2.067,2.067,0,0,1,.446-1.369,1.383,1.383,0,0,1,1.1-.536q1.232,0,1.232,1.428v5.028h1.784V94a2.086,2.086,0,0,1,.442-1.369,1.352,1.352,0,0,1,1.092-.536q1.232,0,1.232,1.428v5.028h1.784V93.168a2.682,2.682,0,0,0-.638-1.991"
       transform="translate(-295.95 -55.123)"
       id="path13" />
    <path
       class="c"
       d="M234.271,33.7V29.827H227.8a2.193,2.193,0,0,1-2.193-2.193v-10a2.193,2.193,0,0,1,2.193-2.193h7.337a2.193,2.193,0,0,1,2.193,2.193v8.327c.107-.01.215-.016.324-.016h3.469a3.364,3.364,0,0,1,1.809.527v-9.28a7.353,7.353,0,0,0-7.353-7.354h-8.222a7.353,7.353,0,0,0-7.353,7.354V28.076a7.353,7.353,0,0,0,7.353,7.354h7.392a3.362,3.362,0,0,1-.479-1.73"
       transform="translate(-133.928 -5.989)"
       id="path14" />
    <path
       class="c"
       d="M265.929,55.185h-3.538a1.745,1.745,0,0,0-1.745,1.745v4.354a1.745,1.745,0,0,0,1.745,1.745h3.538a1.745,1.745,0,0,0,1.745-1.745V56.93a1.745,1.745,0,0,0-1.745-1.745"
       transform="translate(-158.667 -33.594)"
       id="path15" />
    <path
       class="c"
       d="M167.666,10.374v9.5h-10.6v-9.5H150.9V35.541h6.163v-9.5h10.6v9.493h6.163V10.374Z"
       transform="translate(-91.86 -6.315)"
       id="path16" />
    <path
       class="d"
       d="M40.419,35.422a4.995,4.995,0,1,0,4.994,5,4.995,4.995,0,0,0-4.994-5M34.743,0h-24A10.777,10.777,0,0,0,0,10.745v24A10.777,10.777,0,0,0,10.745,45.488h24q.234,0,.466-.01a7.27,7.27,0,0,1-1.867-6.7h-22.6a4.045,4.045,0,0,1-4.032-4.032v-24a4.044,4.044,0,0,1,4.032-4.033h24a4.044,4.044,0,0,1,4.033,4.033V33.339a7.33,7.33,0,0,1,1.643-.186,7.24,7.24,0,0,1,5.06,2.053c.007-.153.01-.308.01-.463v-24A10.777,10.777,0,0,0,34.743,0m-.394,34.348V11.139H27.637v8.248H17.854V11.139H11.141V34.347h6.713V26.1h9.782v8.247Z"
       transform="translate(0 0.001)"
       id="path17" />
    <path
       class="e"
       d="M368.908,19.793a1.418,1.418,0,0,0-1.119-.305h-2.007a.24.24,0,0,1-.243-.239V17.567a.24.24,0,0,1,.243-.239h1.694a1.393,1.393,0,0,0,1.119-.313,1.606,1.606,0,0,0,0-2.254,1.393,1.393,0,0,0-1.119-.313h-3.823a.472.472,0,0,0-.47.473v6.937a.472.472,0,0,0,.47.473h4.135a1.418,1.418,0,0,0,1.119-.305,1.582,1.582,0,0,0,0-2.234m0,0a1.418,1.418,0,0,0-1.119-.305h-2.007a.24.24,0,0,1-.243-.239V17.567a.24.24,0,0,1,.243-.239h1.694a1.393,1.393,0,0,0,1.119-.313,1.606,1.606,0,0,0,0-2.254,1.393,1.393,0,0,0-1.119-.313h-3.823a.472.472,0,0,0-.47.473v6.937a.472.472,0,0,0,.47.473h4.135a1.418,1.418,0,0,0,1.119-.305,1.582,1.582,0,0,0,0-2.234m0,0a1.418,1.418,0,0,0-1.119-.305h-2.007a.24.24,0,0,1-.243-.239V17.567a.24.24,0,0,1,.243-.239h1.694a1.393,1.393,0,0,0,1.119-.313,1.606,1.606,0,0,0,0-2.254,1.393,1.393,0,0,0-1.119-.313h-3.823a.472.472,0,0,0-.47.473v6.937a.472.472,0,0,0,.47.473h4.135a1.418,1.418,0,0,0,1.119-.305,1.582,1.582,0,0,0,0-2.234m0,0a1.418,1.418,0,0,0-1.119-.305h-2.007a.24.24,0,0,1-.243-.239V17.567a.24.24,0,0,1,.243-.239h1.694a1.393,1.393,0,0,0,1.119-.313,1.606,1.606,0,0,0,0-2.254,1.393,1.393,0,0,0-1.119-.313h-3.823a.472.472,0,0,0-.47.473v6.937a.472.472,0,0,0,.47.473h4.135a1.418,1.418,0,0,0,1.119-.305,1.582,1.582,0,0,0,0-2.234m0,0a1.418,1.418,0,0,0-1.119-.305h-2.007a.24.24,0,0,1-.243-.239V17.567a.24.24,0,0,1,.243-.239h1.694a1.393,1.393,0,0,0,1.119-.313,1.606,1.606,0,0,0,0-2.254,1.393,1.393,0,0,0-1.119-.313h-3.823a.472.472,0,0,0-.47.473v6.937a.472.472,0,0,0,.47.473h4.135a1.418,1.418,0,0,0,1.119-.305,1.582,1.582,0,0,0,0-2.234m0,0a1.418,1.418,0,0,0-1.119-.305h-2.007a.24.24,0,0,1-.243-.239V17.567a.24.24,0,0,1,.243-.239h1.694a1.393,1.393,0,0,0,1.119-.313,1.606,1.606,0,0,0,0-2.254,1.393,1.393,0,0,0-1.119-.313h-3.823a.472.472,0,0,0-.47.473v6.937a.472.472,0,0,0,.47.473h4.135a1.418,1.418,0,0,0,1.119-.305,1.582,1.582,0,0,0,0-2.234m0,0a1.418,1.418,0,0,0-1.119-.305h-2.007a.24.24,0,0,1-.243-.239V17.567a.24.24,0,0,1,.243-.239h1.694a1.393,1.393,0,0,0,1.119-.313,1.606,1.606,0,0,0,0-2.254,1.393,1.393,0,0,0-1.119-.313h-3.823a.472.472,0,0,0-.47.473v6.937a.472.472,0,0,0,.47.473h4.135a1.418,1.418,0,0,0,1.119-.305,1.582,1.582,0,0,0,0-2.234m0,0a1.418,1.418,0,0,0-1.119-.305h-2.007a.24.24,0,0,1-.243-.239V17.567a.24.24,0,0,1,.243-.239h1.694a1.393,1.393,0,0,0,1.119-.313,1.606,1.606,0,0,0,0-2.254,1.393,1.393,0,0,0-1.119-.313h-3.823a.472.472,0,0,0-.47.473v6.937a.472.472,0,0,0,.47.473h4.135a1.418,1.418,0,0,0,1.119-.305,1.582,1.582,0,0,0,0-2.234m0,0a1.418,1.418,0,0,0-1.119-.305h-2.007a.24.24,0,0,1-.243-.239V17.567a.24.24,0,0,1,.243-.239h1.694a1.393,1.393,0,0,0,1.119-.313,1.606,1.606,0,0,0,0-2.254,1.393,1.393,0,0,0-1.119-.313h-3.823a.472.472,0,0,0-.47.473v6.937a.472.472,0,0,0,.47.473h4.135a1.418,1.418,0,0,0,1.119-.305,1.582,1.582,0,0,0,0-2.234m0,0a1.418,1.418,0,0,0-1.119-.305h-2.007a.24.24,0,0,1-.243-.239V17.567a.24.24,0,0,1,.243-.239h1.694a1.393,1.393,0,0,0,1.119-.313,1.606,1.606,0,0,0,0-2.254,1.393,1.393,0,0,0-1.119-.313h-3.823a.472.472,0,0,0-.47.473v6.937a.472.472,0,0,0,.47.473h4.135a1.418,1.418,0,0,0,1.119-.305,1.582,1.582,0,0,0,0-2.234m0,0a1.418,1.418,0,0,0-1.119-.305h-2.007a.24.24,0,0,1-.243-.239V17.567a.24.24,0,0,1,.243-.239h1.694a1.393,1.393,0,0,0,1.119-.313,1.606,1.606,0,0,0,0-2.254,1.393,1.393,0,0,0-1.119-.313h-3.823a.472.472,0,0,0-.47.473v6.937a.472.472,0,0,0,.47.473h4.135a1.418,1.418,0,0,0,1.119-.305,1.582,1.582,0,0,0,0-2.234m0,0a1.418,1.418,0,0,0-1.119-.305h-2.007a.24.24,0,0,1-.243-.239V17.567a.24.24,0,0,1,.243-.239h1.694a1.393,1.393,0,0,0,1.119-.313,1.606,1.606,0,0,0,0-2.254,1.393,1.393,0,0,0-1.119-.313h-3.823a.472.472,0,0,0-.47.473v6.937a.472.472,0,0,0,.47.473h4.135a1.418,1.418,0,0,0,1.119-.305,1.582,1.582,0,0,0,0-2.234m5.227-12.8H289.679a2.058,2.058,0,0,0-2.058,2.058V27.211h-.008v7.254l6.014-4.953h81.228a1.337,1.337,0,0,0,1.338-1.338V9.049a2.058,2.058,0,0,0-2.058-2.058m-69.06,16.918a.446.446,0,0,1-.446.446h-2.535l-5.478-7.485a.115.115,0,0,0-.207.067v7.418H294.1a.448.448,0,0,1-.45-.45V12.883a.444.444,0,0,1,.442-.442h2.531l5.485,7.5a.111.111,0,0,0,.2-.067v-7.43h2.328a.445.445,0,0,1,.442.446Zm10.81-4.9a1.774,1.774,0,0,1-.634,1.381,1.852,1.852,0,0,1-1.24.438h-2.833a.506.506,0,0,1-.5-.5v-.626a.725.725,0,0,1,.724-.724h.974a.7.7,0,0,0,.513-.215.68.68,0,0,0,.215-.509v-.5a.7.7,0,0,0-.215-.513.717.717,0,0,0-.513-.215h-2.093a1.069,1.069,0,0,0-1.056,1.056v3.377a1.021,1.021,0,0,0,.313.743,1.032,1.032,0,0,0,.743.309h5.243a.158.158,0,0,1,.156.16v1.53a.158.158,0,0,1-.156.16h-6.158a2.828,2.828,0,0,1-1.459-.387,2.909,2.909,0,0,1-1.056-1.056,2.872,2.872,0,0,1-.391-1.459V18.075a2.9,2.9,0,0,1,2.907-2.907h4.7a1.8,1.8,0,0,1,1.819,1.815Zm10.7,5.333h-2.766a.082.082,0,0,1-.063-.031l-1.925-2.535a.073.073,0,0,0-.121,0l-1.941,2.535a.082.082,0,0,1-.063.031h-2.766a.078.078,0,0,1-.063-.125l3.369-4.433a.082.082,0,0,0,0-.094l-3.369-4.417a.079.079,0,0,1,.063-.125H319.7a.082.082,0,0,1,.063.031l1.941,2.539a.075.075,0,0,0,.121,0l1.925-2.535a.082.082,0,0,1,.063-.031h2.766a.077.077,0,0,1,.059.125l-3.365,4.417a.071.071,0,0,0,0,.094l3.369,4.433a.08.08,0,0,1-.063.125m6.8-7.626h-2.469v4.362a1.093,1.093,0,0,0,1.178.978h1.287v2.3h-1.7a3.269,3.269,0,0,1-3.521-2.934V16.714h-1.068V14.48h1.068V12.148h2.758V14.48h2.469Zm12.821-.352a3.81,3.81,0,0,1-3.811,3.811h-3.247a.494.494,0,0,1-.5-.493v-1.1a.726.726,0,0,1,.728-.724h2.5a1.54,1.54,0,0,0,1.538-1.459,1.6,1.6,0,0,0-1.62-1.62h-4.562v9.578h-2.77V12.441h2.77v0h5.157a3.8,3.8,0,0,1,3.811,3.807Zm12.79-1.213h-7.414a1.2,1.2,0,0,0-1.2,1.2v4.1a1.2,1.2,0,0,0,1.2,1.2h7.414v2.711h-8.6a2.832,2.832,0,0,1-2.833-2.833V15.27a2.831,2.831,0,0,1,2.833-2.829h8.6Zm12.7,7.481a3.523,3.523,0,0,1-1.256,1.26,3.32,3.32,0,0,1-1.725.466h-8.295V12.441h7.982a3.32,3.32,0,0,1,1.725.466,3.575,3.575,0,0,1,1.256,1.256,3.32,3.32,0,0,1,.466,1.725,3.286,3.286,0,0,1-.25,1.279,3.683,3.683,0,0,1-.7,1.1,3.279,3.279,0,0,1,.927,1.158,3.384,3.384,0,0,1,.336,1.491,3.309,3.309,0,0,1-.466,1.718m-3.9-3.142h-2.007a.24.24,0,0,1-.243-.239V17.567a.24.24,0,0,1,.243-.239h1.694a1.393,1.393,0,0,0,1.119-.313,1.606,1.606,0,0,0,0-2.254,1.393,1.393,0,0,0-1.119-.313h-3.823a.472.472,0,0,0-.47.473v6.937a.472.472,0,0,0,.47.473h4.135a1.418,1.418,0,0,0,1.119-.305,1.582,1.582,0,0,0,0-2.234,1.418,1.418,0,0,0-1.119-.305m1.119.305a1.418,1.418,0,0,0-1.119-.305h-2.007a.24.24,0,0,1-.243-.239V17.567a.24.24,0,0,1,.243-.239h1.694a1.393,1.393,0,0,0,1.119-.313,1.606,1.606,0,0,0,0-2.254,1.393,1.393,0,0,0-1.119-.313h-3.823a.472.472,0,0,0-.47.473v6.937a.472.472,0,0,0,.47.473h4.135a1.418,1.418,0,0,0,1.119-.305,1.582,1.582,0,0,0,0-2.234m0,0a1.418,1.418,0,0,0-1.119-.305h-2.007a.24.24,0,0,1-.243-.239V17.567a.24.24,0,0,1,.243-.239h1.694a1.393,1.393,0,0,0,1.119-.313,1.606,1.606,0,0,0,0-2.254,1.393,1.393,0,0,0-1.119-.313h-3.823a.472.472,0,0,0-.47.473v6.937a.472.472,0,0,0,.47.473h4.135a1.418,1.418,0,0,0,1.119-.305,1.582,1.582,0,0,0,0-2.234m0,0a1.418,1.418,0,0,0-1.119-.305h-2.007a.24.24,0,0,1-.243-.239V17.567a.24.24,0,0,1,.243-.239h1.694a1.393,1.393,0,0,0,1.119-.313,1.606,1.606,0,0,0,0-2.254,1.393,1.393,0,0,0-1.119-.313h-3.823a.472.472,0,0,0-.47.473v6.937a.472.472,0,0,0,.47.473h4.135a1.418,1.418,0,0,0,1.119-.305,1.582,1.582,0,0,0,0-2.234m0,0a1.418,1.418,0,0,0-1.119-.305h-2.007a.24.24,0,0,1-.243-.239V17.567a.24.24,0,0,1,.243-.239h1.694a1.393,1.393,0,0,0,1.119-.313,1.606,1.606,0,0,0,0-2.254,1.393,1.393,0,0,0-1.119-.313h-3.823a.472.472,0,0,0-.47.473v6.937a.472.472,0,0,0,.47.473h4.135a1.418,1.418,0,0,0,1.119-.305,1.582,1.582,0,0,0,0-2.234m0,0a1.418,1.418,0,0,0-1.119-.305h-2.007a.24.24,0,0,1-.243-.239V17.567a.24.24,0,0,1,.243-.239h1.694a1.393,1.393,0,0,0,1.119-.313,1.606,1.606,0,0,0,0-2.254,1.393,1.393,0,0,0-1.119-.313h-3.823a.472.472,0,0,0-.47.473v6.937a.472.472,0,0,0,.47.473h4.135a1.418,1.418,0,0,0,1.119-.305,1.582,1.582,0,0,0,0-2.234m0,0a1.418,1.418,0,0,0-1.119-.305h-2.007a.24.24,0,0,1-.243-.239V17.567a.24.24,0,0,1,.243-.239h1.694a1.393,1.393,0,0,0,1.119-.313,1.606,1.606,0,0,0,0-2.254,1.393,1.393,0,0,0-1.119-.313h-3.823a.472.472,0,0,0-.47.473v6.937a.472.472,0,0,0,.47.473h4.135a1.418,1.418,0,0,0,1.119-.305,1.582,1.582,0,0,0,0-2.234m0,0a1.418,1.418,0,0,0-1.119-.305h-2.007a.24.24,0,0,1-.243-.239V17.567a.24.24,0,0,1,.243-.239h1.694a1.393,1.393,0,0,0,1.119-.313,1.606,1.606,0,0,0,0-2.254,1.393,1.393,0,0,0-1.119-.313h-3.823a.472.472,0,0,0-.47.473v6.937a.472.472,0,0,0,.47.473h4.135a1.418,1.418,0,0,0,1.119-.305,1.582,1.582,0,0,0,0-2.234m0,0a1.418,1.418,0,0,0-1.119-.305h-2.007a.24.24,0,0,1-.243-.239V17.567a.24.24,0,0,1,.243-.239h1.694a1.393,1.393,0,0,0,1.119-.313,1.606,1.606,0,0,0,0-2.254,1.393,1.393,0,0,0-1.119-.313h-3.823a.472.472,0,0,0-.47.473v6.937a.472.472,0,0,0,.47.473h4.135a1.418,1.418,0,0,0,1.119-.305,1.582,1.582,0,0,0,0-2.234m0,0a1.418,1.418,0,0,0-1.119-.305h-2.007a.24.24,0,0,1-.243-.239V17.567a.24.24,0,0,1,.243-.239h1.694a1.393,1.393,0,0,0,1.119-.313,1.606,1.606,0,0,0,0-2.254,1.393,1.393,0,0,0-1.119-.313h-3.823a.472.472,0,0,0-.47.473v6.937a.472.472,0,0,0,.47.473h4.135a1.418,1.418,0,0,0,1.119-.305,1.582,1.582,0,0,0,0-2.234m0,0a1.418,1.418,0,0,0-1.119-.305h-2.007a.24.24,0,0,1-.243-.239V17.567a.24.24,0,0,1,.243-.239h1.694a1.393,1.393,0,0,0,1.119-.313,1.606,1.606,0,0,0,0-2.254,1.393,1.393,0,0,0-1.119-.313h-3.823a.472.472,0,0,0-.47.473v6.937a.472.472,0,0,0,.47.473h4.135a1.418,1.418,0,0,0,1.119-.305,1.582,1.582,0,0,0,0-2.234"
       transform="translate(-175.084 -4.256)"
       id="path18"
       inkscape:export-filename="path18.png"
       inkscape:export-xdpi="300"
       inkscape:export-ydpi="300" />
  </g>
</svg>
